<svg xmlns="http://www.w3.org/2000/svg" xmlns:xlink="http://www.w3.org/1999/xlink" id="Layer_1" x="0px" y="0px" width="3810.4px" height="560.1px" viewBox="0 0 3810.4 560.1" style="enable-background:new 0 0 3810.4 560.1;" xml:space="preserve"><style type="text/css">	.st0{fill:#FCF34C;}	.st1{fill:#274690;}</style><path class="st0" d="M85.4,501.8c6.5-4.3,12.7-8.4,25.3-8.4c7.3,0,12.4,1.4,16.7,3.3c5.9,1.5,10.1,4.3,14.3,7.1 c2.8,1.8,5.6,3.7,9,5.2c3.3,0.9,7,1.4,11.6,1.4c13.1,0,19.8-4.4,26.2-8.7c6.5-4.3,12.7-8.4,25.3-8.4c7.3,0,12.4,1.4,16.7,3.3 c5.9,1.5,10.1,4.3,14.3,7.1c2.8,1.8,5.6,3.7,9,5.2c3.3,0.9,7,1.4,11.6,1.4c13.1,0,19.8-4.4,26.2-8.7c6.5-4.3,12.7-8.4,25.3-8.4 c7.3,0,12.4,1.4,16.7,3.3c5.9,1.5,10.1,4.3,14.3,7.1c2.8,1.8,5.6,3.7,9,5.2c3.3,0.9,7,1.4,11.6,1.4c13.1,0,19.8-4.4,26.2-8.7 c6.5-4.3,12.7-8.4,25.3-8.4c7.3,0,12.4,1.4,16.7,3.3c5.9,1.5,10.1,4.3,14.3,7.1c2.8,1.8,5.6,3.7,9,5.2c3.3,0.9,7,1.4,11.6,1.4 c5.3,0,9.6-0.7,13.2-1.9c32.1-42.3,51.2-95.1,51.2-152.4c0-139.2-112.6-252-251.5-252S32.9,217,32.9,356.2 c0,55.5,17.9,106.7,48.2,148.3C82.6,503.6,84,502.7,85.4,501.8z"></path><g>	<path class="st1" d="M295.4,385.3c0-35.4,13.2-66.8,33.7-86.4c-34.4,6-61.9,32.1-70,65.7c-58.4,13.8-67.2-34.4-67.2-34.4  c-6.9,73.3,34.6,93.3,49.2,100.8c-9.4-12.7-10.8-18.3-12.1-23.7c4.1,1,23.4-1.5,29.9-2.4c7.8,34.1,35.5,60.6,70.2,66.7  C308.6,452.1,295.4,420.7,295.4,385.3z"></path>	<path class="st1" d="M534.5,136.4c91.1-27.9,230.6-63.5,229.7-63.3c-0.9,0.2-248.3,47.8-248.3,47.8s-20.6,5.8-48.3-5.3  c-27.8-11.1-38.3-15.6-68.3-14.4C380.6,80,339.5,28.9,241.5,32.8c0,0,0.5,4.2-1.6,12c61.4,1.2,86.4,25.4,86.4,25.4  c-34-20-77.8-22.9-87-23.3c-1.9,6-5.2,13.7-11.2,23c42,0.8,61.5,15.3,61.5,15.3c-21.4-9.1-45.4-11.9-63.4-12.4  c-4.2,6.2-9.4,12.9-16.1,20.3c-0.2,0.2-0.4,0.4-0.6,0.6c25.5,1,38.3,8.3,38.3,8.3c-13.6-3.9-27.8-5.2-41-5.4  c-4.5,5-9.4,10.4-14.5,16.2c15.4,1,23.4,4.6,23.4,4.6c-8.4-1.6-17.1-2.2-25.4-2.2c-5.3,6.1-10.8,12.6-16.3,19.5  c12.4,1.3,18.8,4.2,18.8,4.2c-6.8-1.3-13.6-1.9-20.4-2.1c-27.9,35.4-54.6,79.8-54.2,126.3c8.9-25,26.4-77.5,115.8-121.6  c-21.1,14.2-60.3,38.3-84.2,76.7c0,0-44.2,50-16.9,130.8c16.4-116.4,164.4-164.4,235-174.4c-32.8,9.2-109.2,29-151.1,63.9  c-41.7,34.7-64.4,57.2-75.8,127.2c5.6,8.1,19.2,24.4,54.4,40.3c-6.7-15.6-34.7-62.2,3.6-104.2c0,0,41.4-50.3,159.1-64.2  c-6.9,11.1-23.9,30.6-34.2,38.1c19.4-6.1,62.2-25,81.1-47.8c-0.6,6.1-2.5,12.8-7.2,20.8c6.7-4.4,17.2-10.6,23.3-32.5  c5-1.9,26.7-11.4,40.8-19.2c14.2-7.8,20.3-8.6,36.1-7.5c15.8,1.1,33.3,4.4,44.4-1.4c-28.6-7.8-86.7-20.6-86.7-20.6  S482.8,152.2,534.5,136.4z M468.4,124.4c3.5,0,6.4,2.9,6.4,6.4c0,3.5-2.9,6.4-6.4,6.4s-6.4-2.9-6.4-6.4  C462,127.3,464.9,124.4,468.4,124.4z M414.9,181.1c-1.4-3.3-1.8-16.2,8.3-29.2c0,0-20.4,32.6,13.6,44.3  C429.9,195.4,422.7,196.5,414.9,181.1z M456.6,188.3c-4.9,0.3-36.5-1.8-20.3-37.5C436.6,150.3,425.1,180.1,456.6,188.3z"></path></g><g>	<path class="st1" d="M635.2,288.8c-3.4-1.5-4.1-2.6-4.1-7.3c0-11.8,0.9-24.7,1.1-28.2c0.2-3.2,0.9-5.6,2.6-5.6  c1.9,0,2.2,1.9,2.2,3.7c0,2.8,0.9,7.3,1.9,11c4.7,15.9,17.4,21.7,30.7,21.7c19.3,0,28.8-13.1,28.8-24.5c0-10.5-3.2-20.4-21.1-34.4  l-9.9-7.7c-23.6-18.5-31.8-33.5-31.8-51c0-23.6,19.8-40.6,49.7-40.6c14,0,23,2.1,28.6,3.7c1.9,0.4,3,1.1,3,2.6  c0,2.8-0.9,9-0.9,25.8c0,4.7-0.6,6.5-2.4,6.5c-1.5,0-2.1-1.3-2.1-3.9c0-1.9-1.1-8.6-5.6-14.2c-3.2-4.1-9.5-10.5-23.4-10.5  c-15.9,0-25.6,9.2-25.6,22.1c0,9.9,4.9,17.4,22.8,31l6,4.5c26,19.6,35.3,34.4,35.3,54.8c0,12.5-4.7,27.3-20.2,37.4  c-10.7,6.9-22.8,8.8-34.2,8.8C654.1,294.4,644.5,292.9,635.2,288.8z"></path>	<path class="st1" d="M800.8,140.9l-32,0.9c-12.5,0.4-17.6,1.5-20.9,6.2c-2.1,3.2-3.2,5.8-3.7,7.5c-0.4,1.7-1.1,2.6-2.4,2.6  c-1.5,0-1.9-1.1-1.9-3.4c0-3.4,4.1-23,4.5-24.7c0.6-2.8,1.3-4.1,2.6-4.1c1.7,0,3.9,2.1,9.2,2.6c6.2,0.6,14.4,1.1,21.5,1.1h85.1  c6.9,0,11.6-0.6,14.8-1.1c3.2-0.6,4.9-1.1,5.8-1.1c1.5,0,1.7,1.3,1.7,4.5c0,4.5-0.6,19.3-0.6,24.9c-0.2,2.1-0.6,3.4-1.9,3.4  c-1.7,0-2.1-1.1-2.4-4.3l-0.2-2.4c-0.4-5.6-6.2-11.6-25.4-12l-27.1-0.6V229c0,19.8,0,36.8,1.1,46c0.6,6,1.9,10.7,8.4,11.6  c3,0.4,7.7,0.9,11,0.9c2.4,0,3.4,0.6,3.4,1.7c0,1.5-1.7,2.1-4.1,2.1c-14.2,0-27.7-0.6-33.8-0.6c-4.9,0-18.5,0.6-27.1,0.6  c-2.8,0-4.3-0.6-4.3-2.1c0-1.1,0.9-1.7,3.4-1.7c3.2,0,5.8-0.4,7.7-0.9c4.3-0.9,5.6-5.6,6.2-11.8c1.1-9,1.1-26,1.1-45.8V140.9z"></path>	<path class="st1" d="M915.6,191.2c0-32.7,0-38.7-0.4-45.6c-0.4-7.3-2.1-10.8-9.2-12.3c-1.7-0.4-5.4-0.6-8.4-0.6  c-2.4,0-3.7-0.4-3.7-1.9c0-1.5,1.5-1.9,4.7-1.9c11.4,0,24.9,0.6,31.4,0.6c5.2,0,18.7-0.6,26.4-0.6c3.2,0,4.7,0.4,4.7,1.9  c0,1.5-1.3,1.9-3.4,1.9c-2.4,0-3.7,0.2-6.2,0.6c-5.8,1.1-7.5,4.7-8,12.3c-0.4,6.9-0.4,12.9-0.4,45.6v30.1  c0,31.2,6.2,44.3,16.8,52.9c9.7,8,19.6,8.8,26.9,8.8c9.5,0,21.1-3,29.7-11.6c11.8-11.8,12.5-31.2,12.5-53.3v-26.9  c0-32.7,0-38.7-0.4-45.6c-0.4-7.3-2.1-10.8-9.2-12.3c-1.7-0.4-5.4-0.6-7.7-0.6c-2.4,0-3.7-0.4-3.7-1.9c0-1.5,1.5-1.9,4.5-1.9  c11,0,24.5,0.6,24.7,0.6c2.6,0,16.1-0.6,24.5-0.6c3,0,4.5,0.4,4.5,1.9c0,1.5-1.3,1.9-3.9,1.9c-2.4,0-3.7,0.2-6.2,0.6  c-5.8,1.1-7.5,4.7-8,12.3c-0.4,6.9-0.4,12.9-0.4,45.6v23c0,23.9-2.4,49.2-20.4,64.7c-15.3,13.1-30.7,15.5-44.7,15.5  c-11.4,0-32-0.6-47.7-14.8c-11-9.9-19.1-25.8-19.1-57V191.2z"></path>	<path class="st1" d="M1113.8,235.3c-1.1,0-1.5,0.4-1.9,1.7l-11.6,30.7c-2.1,5.4-3.2,10.5-3.2,13.1c0,3.9,1.9,6.7,8.6,6.7h3.2  c2.6,0,3.2,0.4,3.2,1.7c0,1.7-1.3,2.1-3.7,2.1c-6.9,0-16.1-0.6-22.8-0.6c-2.4,0-14.2,0.6-25.4,0.6c-2.8,0-4.1-0.4-4.1-2.1  c0-1.3,0.9-1.7,2.6-1.7c1.9,0,4.9-0.2,6.7-0.4c9.9-1.3,14-8.6,18.3-19.3l54-135c2.6-6.2,3.9-8.6,6-8.6c1.9,0,3.2,1.9,5.4,6.9  c5.2,11.8,39.6,99.5,53.3,132.2c8.2,19.3,14.4,22.4,18.9,23.4c3.2,0.6,6.4,0.9,9,0.9c1.7,0,2.8,0.2,2.8,1.7c0,1.7-1.9,2.1-9.9,2.1  c-7.7,0-23.4,0-40.6-0.4c-3.9-0.2-6.5-0.2-6.5-1.7c0-1.3,0.9-1.7,3-1.9c1.5-0.4,3-2.4,1.9-4.9l-17.2-45.6c-0.4-1.1-1.1-1.5-2.2-1.5  H1113.8z M1157.7,224.5c1.1,0,1.3-0.6,1.1-1.3l-19.3-53.1c-0.2-0.9-0.4-1.9-1.1-1.9c-0.6,0-1.1,1.1-1.3,1.9l-19.8,52.9  c-0.2,0.9,0,1.5,0.9,1.5H1157.7z"></path>	<path class="st1" d="M1255.7,191.2c0-32.7,0-38.7-0.4-45.6c-0.4-7.3-2.1-10.8-9.2-12.3c-1.7-0.4-5.4-0.6-8.4-0.6  c-2.4,0-3.7-0.4-3.7-1.9c0-1.5,1.5-1.9,4.7-1.9c11.4,0,24.9,0.6,29.5,0.6c7.3,0,23.6-0.6,30.3-0.6c13.5,0,27.9,1.3,39.6,9.2  c6,4.1,14.6,15,14.6,29.5c0,15.9-6.7,30.5-28.4,48.2c19.1,24.1,34,43.2,46.7,56.5c12,12.5,20.9,14,24.1,14.6c2.4,0.4,4.3,0.6,6,0.6  c1.7,0,2.6,0.6,2.6,1.7c0,1.7-1.5,2.1-4.1,2.1h-20.4c-12,0-17.4-1.1-23-4.1c-9.2-4.9-17.4-15-29.5-31.6  c-8.6-11.8-18.5-26.4-21.3-29.7c-1.1-1.3-2.4-1.5-3.9-1.5l-18.7-0.4c-1.1,0-1.7,0.4-1.7,1.7v3c0,20,0,37,1.1,46  c0.6,6.2,1.9,11,8.4,11.8c3.2,0.4,8,0.9,10.5,0.9c1.7,0,2.6,0.6,2.6,1.7c0,1.5-1.5,2.1-4.3,2.1c-12.5,0-28.4-0.6-31.6-0.6  c-4.1,0-17.6,0.6-26.2,0.6c-2.8,0-4.3-0.6-4.3-2.1c0-1.1,0.9-1.7,3.4-1.7c3.2,0,5.8-0.4,7.7-0.9c4.3-0.9,5.4-5.6,6.2-11.8  c1.1-9,1.1-26,1.1-45.8V191.2z M1281.1,208.2c0,2.4,0.4,3.2,1.9,3.9c4.5,1.5,11,2.1,16.3,2.1c8.6,0,11.4-0.9,15.3-3.7  c6.4-4.7,12.7-14.6,12.7-32.2c0-30.5-20.2-39.3-32.9-39.3c-5.4,0-9.2,0.2-11.4,0.9c-1.5,0.4-1.9,1.3-1.9,3V208.2z"></path>	<path class="st1" d="M1438.5,140.9l-32,0.9c-12.5,0.4-17.6,1.5-20.9,6.2c-2.1,3.2-3.2,5.8-3.7,7.5c-0.4,1.7-1.1,2.6-2.4,2.6  c-1.5,0-1.9-1.1-1.9-3.4c0-3.4,4.1-23,4.5-24.7c0.6-2.8,1.3-4.1,2.6-4.1c1.7,0,3.9,2.1,9.2,2.6c6.2,0.6,14.4,1.1,21.5,1.1h85.1  c6.9,0,11.6-0.6,14.8-1.1c3.2-0.6,4.9-1.1,5.8-1.1c1.5,0,1.7,1.3,1.7,4.5c0,4.5-0.6,19.3-0.6,24.9c-0.2,2.1-0.6,3.4-1.9,3.4  c-1.7,0-2.2-1.1-2.4-4.3l-0.2-2.4c-0.4-5.6-6.2-11.6-25.4-12l-27.1-0.6V229c0,19.8,0,36.8,1.1,46c0.6,6,1.9,10.7,8.4,11.6  c3,0.4,7.7,0.9,11,0.9c2.4,0,3.4,0.6,3.4,1.7c0,1.5-1.7,2.1-4.1,2.1c-14.2,0-27.7-0.6-33.8-0.6c-4.9,0-18.5,0.6-27.1,0.6  c-2.8,0-4.3-0.6-4.3-2.1c0-1.1,0.9-1.7,3.4-1.7c3.2,0,5.8-0.4,7.7-0.9c4.3-0.9,5.6-5.6,6.2-11.8c1.1-9,1.1-26,1.1-45.8V140.9z"></path>	<path class="st1" d="M1531.1,289.9c-1.1-0.6-1.1-1.7,0-3.7l98-159.1c1.1-1.7,1.9-1.7,3-1.1l7.7,4.7c0.9,0.4,1.1,1.3,0.2,2.6  l-98.7,160.2c-0.9,1.5-1.7,1.9-2.8,1.3L1531.1,289.9z"></path>	<path class="st1" d="M1687,129.7c0.6-3.7,1.9-5.6,3.7-5.6c1.7,0,3,1.1,5.8,6.7l58.7,121.3l58.5-122.8c1.7-3.4,2.8-5.2,4.7-5.2  c1.9,0,3.2,2.1,3.9,6.7l19.6,132.9c1.9,13.5,4.1,19.8,10.5,21.7c6.2,1.9,10.5,2.2,13.3,2.2c1.9,0,3.4,0.2,3.4,1.5  c0,1.7-2.6,2.4-5.6,2.4c-5.4,0-35-0.6-43.6-1.3c-4.9-0.4-6.2-1.1-6.2-2.4c0-1.1,0.9-1.7,2.4-2.4c1.3-0.4,1.9-3.2,1.1-9.2  l-12.9-94.6h-0.9l-46.9,97.6c-4.9,10.1-6,12-8,12c-1.9,0-4.1-4.3-7.5-10.7c-5.2-9.9-22.1-42.8-24.7-48.8  c-1.9-4.5-14.8-31.6-22.4-47.7h-0.9l-11.2,85.6c-0.4,3.9-0.6,6.7-0.6,10.1c0,4.1,2.8,6,6.5,6.9c3.9,0.9,6.9,1.1,9,1.1  c1.7,0,3.2,0.4,3.2,1.5c0,1.9-1.9,2.4-5.2,2.4c-9,0-18.7-0.6-22.6-0.6c-4.1,0-14.4,0.6-21.3,0.6c-2.1,0-3.9-0.4-3.9-2.4  c0-1.1,1.3-1.5,3.4-1.5c1.7,0,3.2,0,6.5-0.6c6-1.3,7.7-9.7,8.8-17L1687,129.7z"></path>	<path class="st1" d="M1914,235.3c-1.1,0-1.5,0.4-1.9,1.7l-11.6,30.7c-2.2,5.4-3.2,10.5-3.2,13.1c0,3.9,1.9,6.7,8.6,6.7h3.2  c2.6,0,3.2,0.4,3.2,1.7c0,1.7-1.3,2.1-3.7,2.1c-6.9,0-16.1-0.6-22.8-0.6c-2.4,0-14.2,0.6-25.4,0.6c-2.8,0-4.1-0.4-4.1-2.1  c0-1.3,0.9-1.7,2.6-1.7c1.9,0,4.9-0.2,6.7-0.4c9.9-1.3,14-8.6,18.3-19.3l54-135c2.6-6.2,3.9-8.6,6-8.6c1.9,0,3.2,1.9,5.4,6.9  c5.2,11.8,39.6,99.5,53.3,132.2c8.2,19.3,14.4,22.4,18.9,23.4c3.2,0.6,6.4,0.9,9,0.9c1.7,0,2.8,0.2,2.8,1.7c0,1.7-1.9,2.1-9.9,2.1  c-7.7,0-23.4,0-40.6-0.4c-3.9-0.2-6.5-0.2-6.5-1.7c0-1.3,0.9-1.7,3-1.9c1.5-0.4,3-2.4,1.9-4.9l-17.2-45.6c-0.4-1.1-1.1-1.5-2.2-1.5  H1914z M1957.9,224.5c1.1,0,1.3-0.6,1.1-1.3l-19.3-53.1c-0.2-0.9-0.4-1.9-1.1-1.9c-0.6,0-1.1,1.1-1.3,1.9l-19.8,52.9  c-0.2,0.9,0,1.5,0.9,1.5H1957.9z"></path>	<path class="st1" d="M2055.9,191.2c0-32.7,0-38.7-0.4-45.6c-0.4-7.3-2.2-10.8-9.2-12.3c-1.7-0.4-5.4-0.6-8.4-0.6  c-2.4,0-3.7-0.4-3.7-1.9c0-1.5,1.5-1.9,4.7-1.9c11.4,0,24.9,0.6,29.5,0.6c7.3,0,23.6-0.6,30.3-0.6c13.5,0,28,1.3,39.6,9.2  c6,4.1,14.6,15,14.6,29.5c0,15.9-6.7,30.5-28.4,48.2c19.1,24.1,34,43.2,46.7,56.5c12,12.5,20.9,14,24.1,14.6c2.4,0.4,4.3,0.6,6,0.6  c1.7,0,2.6,0.6,2.6,1.7c0,1.7-1.5,2.1-4.1,2.1h-20.4c-12,0-17.4-1.1-23-4.1c-9.2-4.9-17.4-15-29.5-31.6  c-8.6-11.8-18.5-26.4-21.3-29.7c-1.1-1.3-2.4-1.5-3.9-1.5l-18.7-0.4c-1.1,0-1.7,0.4-1.7,1.7v3c0,20,0,37,1.1,46  c0.6,6.2,1.9,11,8.4,11.8c3.2,0.4,8,0.9,10.5,0.9c1.7,0,2.6,0.6,2.6,1.7c0,1.5-1.5,2.1-4.3,2.1c-12.5,0-28.4-0.6-31.6-0.6  c-4.1,0-17.6,0.6-26.2,0.6c-2.8,0-4.3-0.6-4.3-2.1c0-1.1,0.9-1.7,3.4-1.7c3.2,0,5.8-0.4,7.7-0.9c4.3-0.9,5.4-5.6,6.2-11.8  c1.1-9,1.1-26,1.1-45.8V191.2z M2081.3,208.2c0,2.4,0.4,3.2,1.9,3.9c4.5,1.5,11,2.1,16.3,2.1c8.6,0,11.4-0.9,15.3-3.7  c6.5-4.7,12.7-14.6,12.7-32.2c0-30.5-20.2-39.3-32.9-39.3c-5.4,0-9.2,0.2-11.4,0.9c-1.5,0.4-1.9,1.3-1.9,3V208.2z"></path>	<path class="st1" d="M2238.7,140.9l-32,0.9c-12.5,0.4-17.6,1.5-20.9,6.2c-2.2,3.2-3.2,5.8-3.7,7.5c-0.4,1.7-1.1,2.6-2.4,2.6  c-1.5,0-1.9-1.1-1.9-3.4c0-3.4,4.1-23,4.5-24.7c0.6-2.8,1.3-4.1,2.6-4.1c1.7,0,3.9,2.1,9.2,2.6c6.2,0.6,14.4,1.1,21.5,1.1h85.1  c6.9,0,11.6-0.6,14.8-1.1c3.2-0.6,4.9-1.1,5.8-1.1c1.5,0,1.7,1.3,1.7,4.5c0,4.5-0.6,19.3-0.6,24.9c-0.2,2.1-0.6,3.4-1.9,3.4  c-1.7,0-2.2-1.1-2.4-4.3l-0.2-2.4c-0.4-5.6-6.2-11.6-25.4-12l-27.1-0.6V229c0,19.8,0,36.8,1.1,46c0.6,6,1.9,10.7,8.4,11.6  c3,0.4,7.7,0.9,11,0.9c2.4,0,3.4,0.6,3.4,1.7c0,1.5-1.7,2.1-4.1,2.1c-14.2,0-27.7-0.6-33.8-0.6c-4.9,0-18.5,0.6-27.1,0.6  c-2.8,0-4.3-0.6-4.3-2.1c0-1.1,0.9-1.7,3.4-1.7c3.2,0,5.8-0.4,7.7-0.9c4.3-0.9,5.6-5.6,6.2-11.8c1.1-9,1.1-26,1.1-45.8V140.9z"></path>	<path class="st1" d="M2362.7,191.2c0-32.7,0-38.7-0.4-45.6c-0.4-7.3-2.6-11-7.3-12c-2.4-0.6-5.2-0.9-7.7-0.9  c-2.1,0-3.4-0.4-3.4-2.1c0-1.3,1.7-1.7,5.2-1.7c8.2,0,21.7,0.6,27.9,0.6c5.4,0,18.1-0.6,26.2-0.6c2.8,0,4.5,0.4,4.5,1.7  c0,1.7-1.3,2.1-3.4,2.1c-2.2,0-3.9,0.2-6.5,0.6c-5.8,1.1-7.5,4.7-8,12.3c-0.4,6.9-0.4,12.9-0.4,45.6V229c0,20.9,0,37.8,0.9,47.1  c0.6,5.8,2.1,9.7,8.6,10.5c3,0.4,7.7,0.9,11,0.9c2.4,0,3.4,0.6,3.4,1.7c0,1.5-1.7,2.1-4.1,2.1c-14.2,0-27.7-0.6-33.5-0.6  c-4.9,0-18.5,0.6-27.1,0.6c-2.8,0-4.3-0.6-4.3-2.1c0-1.1,0.9-1.7,3.4-1.7c3.2,0,5.8-0.4,7.7-0.9c4.3-0.9,5.6-4.5,6.2-10.8  c1.1-9,1.1-26,1.1-46.9V191.2z"></path>	<path class="st1" d="M2471.9,262.1c0.4,16.8,3.2,22.4,7.5,23.9c3.7,1.3,7.7,1.5,11.2,1.5c2.4,0,3.7,0.4,3.7,1.7  c0,1.7-1.9,2.1-4.9,2.1c-14,0-22.6-0.6-26.7-0.6c-1.9,0-12,0.6-23.2,0.6c-2.8,0-4.7-0.2-4.7-2.1c0-1.3,1.3-1.7,3.4-1.7  c2.8,0,6.7-0.2,9.7-1.1c5.6-1.7,6.5-8,6.7-26.7l1.9-127.3c0-4.3,0.6-7.3,2.8-7.3c2.4,0,4.3,2.8,8,6.7c2.6,2.8,35.3,37.8,66.6,69  c14.6,14.6,43.6,45.6,47.3,49h1.1l-2.2-96.5c-0.2-13.1-2.2-17.2-7.3-19.3c-3.2-1.3-8.4-1.3-11.4-1.3c-2.6,0-3.4-0.6-3.4-1.9  c0-1.7,2.4-1.9,5.6-1.9c11.2,0,21.5,0.6,26,0.6c2.4,0,10.5-0.6,21.1-0.6c2.8,0,4.9,0.2,4.9,1.9c0,1.3-1.3,1.9-3.9,1.9  c-2.2,0-3.9,0-6.5,0.6c-6,1.7-7.7,6.2-8,18.3l-2.4,135.7c0,4.7-0.9,6.7-2.8,6.7c-2.4,0-4.9-2.4-7.3-4.7  c-13.5-12.9-41.1-41.1-63.4-63.2c-23.4-23.2-47.3-50.1-51.2-54.2h-0.6L2471.9,262.1z"></path>	<path class="st1" d="M2731.2,271c-21.1-18.5-26.7-42.6-26.7-63.4c0-14.6,4.5-40,25.2-58.9c15.5-14.2,35.9-22.8,67.9-22.8  c13.3,0,21.3,0.9,31.2,2.1c8.2,1.1,15,3,21.5,3.7c2.4,0.2,3.2,1.3,3.2,2.6c0,1.7-0.6,4.3-1.1,11.8c-0.4,7.1-0.2,18.9-0.6,23.2  c-0.2,3.2-0.6,4.9-2.6,4.9c-1.7,0-2.2-1.7-2.2-4.7c-0.2-6.7-3-14.2-8.4-19.8c-7.1-7.5-23.9-13.3-43.6-13.3  c-18.7,0-31,4.7-40.4,13.3c-15.7,14.4-19.8,34.8-19.8,55.7c0,51.2,38.9,76.5,67.7,76.5c19.1,0,30.7-2.2,39.3-12  c3.7-4.1,6.5-10.3,7.3-14.2c0.6-3.4,1.1-4.3,2.8-4.3c1.5,0,1.9,1.5,1.9,3.2c0,2.6-2.6,21.3-4.7,28.6c-1.1,3.7-1.9,4.7-5.6,6.2  c-8.6,3.4-24.9,4.9-38.7,4.9C2775.5,294.4,2750.8,287.9,2731.2,271z"></path>	<path class="st1" d="M2876.6,210.1c0-36.8,24.3-84.3,88.8-84.3c53.5,0,86.9,31.2,86.9,80.4c0,49.2-34.4,88.1-89,88.1  C2901.5,294.4,2876.6,248.2,2876.6,210.1z M3022.1,214.2c0-48.2-27.7-78-63-78c-24.7,0-52.9,13.8-52.9,67.3  c0,44.7,24.7,80.2,66,80.2C2987.3,283.6,3022.1,276.3,3022.1,214.2z"></path>	<path class="st1" d="M3090.1,191.2c0-32.7,0-38.7-0.4-45.6c-0.4-7.3-2.2-10.8-9.2-12.3c-1.7-0.4-5.4-0.6-8.4-0.6  c-2.4,0-3.7-0.4-3.7-1.9c0-1.5,1.5-1.9,4.7-1.9c11.4,0,24.9,0.6,31.4,0.6c5.2,0,18.7-0.6,26.4-0.6c3.2,0,4.7,0.4,4.7,1.9  c0,1.5-1.3,1.9-3.4,1.9c-2.4,0-3.7,0.2-6.2,0.6c-5.8,1.1-7.5,4.7-8,12.3c-0.4,6.9-0.4,12.9-0.4,45.6v30.1  c0,31.2,6.2,44.3,16.8,52.9c9.7,8,19.6,8.8,26.9,8.8c9.5,0,21.1-3,29.7-11.6c11.8-11.8,12.5-31.2,12.5-53.3v-26.9  c0-32.7,0-38.7-0.4-45.6c-0.4-7.3-2.2-10.8-9.2-12.3c-1.7-0.4-5.4-0.6-7.7-0.6c-2.4,0-3.7-0.4-3.7-1.9c0-1.5,1.5-1.9,4.5-1.9  c11,0,24.5,0.6,24.7,0.6c2.6,0,16.1-0.6,24.5-0.6c3,0,4.5,0.4,4.5,1.9c0,1.5-1.3,1.9-3.9,1.9c-2.4,0-3.7,0.2-6.2,0.6  c-5.8,1.1-7.5,4.7-8,12.3c-0.4,6.9-0.4,12.9-0.4,45.6v23c0,23.9-2.4,49.2-20.4,64.7c-15.3,13.1-30.7,15.5-44.7,15.5  c-11.4,0-32-0.6-47.7-14.8c-11-9.9-19.1-25.8-19.1-57V191.2z"></path>	<path class="st1" d="M3294.5,262.1c0.4,16.8,3.2,22.4,7.5,23.9c3.7,1.3,7.7,1.5,11.2,1.5c2.4,0,3.7,0.4,3.7,1.7  c0,1.7-1.9,2.1-4.9,2.1c-14,0-22.6-0.6-26.7-0.6c-1.9,0-12,0.6-23.2,0.6c-2.8,0-4.7-0.2-4.7-2.1c0-1.3,1.3-1.7,3.4-1.7  c2.8,0,6.7-0.2,9.7-1.1c5.6-1.7,6.5-8,6.7-26.7l1.9-127.3c0-4.3,0.6-7.3,2.8-7.3c2.4,0,4.3,2.8,8,6.7c2.6,2.8,35.3,37.8,66.6,69  c14.6,14.6,43.6,45.6,47.3,49h1.1l-2.2-96.5c-0.2-13.1-2.2-17.2-7.3-19.3c-3.2-1.3-8.4-1.3-11.4-1.3c-2.6,0-3.4-0.6-3.4-1.9  c0-1.7,2.4-1.9,5.6-1.9c11.2,0,21.5,0.6,26,0.6c2.4,0,10.5-0.6,21.1-0.6c2.8,0,4.9,0.2,4.9,1.9c0,1.3-1.3,1.9-3.9,1.9  c-2.2,0-3.9,0-6.5,0.6c-6,1.7-7.7,6.2-8,18.3l-2.4,135.7c0,4.7-0.9,6.7-2.8,6.7c-2.4,0-4.9-2.4-7.3-4.7  c-13.5-12.9-41.1-41.1-63.4-63.2c-23.4-23.2-47.3-50.1-51.2-54.2h-0.6L3294.5,262.1z"></path>	<path class="st1" d="M3514.7,140.9l-32,0.9c-12.5,0.4-17.6,1.5-20.9,6.2c-2.2,3.2-3.2,5.8-3.7,7.5c-0.4,1.7-1.1,2.6-2.4,2.6  c-1.5,0-1.9-1.1-1.9-3.4c0-3.4,4.1-23,4.5-24.7c0.6-2.8,1.3-4.1,2.6-4.1c1.7,0,3.9,2.1,9.2,2.6c6.2,0.6,14.4,1.1,21.5,1.1h85.1  c6.9,0,11.6-0.6,14.8-1.1c3.2-0.6,4.9-1.1,5.8-1.1c1.5,0,1.7,1.3,1.7,4.5c0,4.5-0.6,19.3-0.6,24.9c-0.2,2.1-0.6,3.4-1.9,3.4  c-1.7,0-2.2-1.1-2.4-4.3l-0.2-2.4c-0.4-5.6-6.2-11.6-25.4-12l-27.1-0.6V229c0,19.8,0,36.8,1.1,46c0.6,6,1.9,10.7,8.4,11.6  c3,0.4,7.7,0.9,11,0.9c2.4,0,3.4,0.6,3.4,1.7c0,1.5-1.7,2.1-4.1,2.1c-14.2,0-27.7-0.6-33.8-0.6c-4.9,0-18.5,0.6-27.1,0.6  c-2.8,0-4.3-0.6-4.3-2.1c0-1.1,0.9-1.7,3.4-1.7c3.2,0,5.8-0.4,7.7-0.9c4.3-0.9,5.6-5.6,6.2-11.8c1.1-9,1.1-26,1.1-45.8V140.9z"></path>	<path class="st1" d="M3663.9,235.7c0-11.6-2.1-16.3-4.9-22.6c-1.5-3.4-30.3-50.7-37.8-61.9c-5.4-8-10.8-13.3-14.8-15.7  c-2.8-1.5-6.4-2.8-9-2.8c-1.7,0-3.2-0.4-3.2-1.9c0-1.3,1.5-1.9,4.1-1.9c3.9,0,20,0.6,27.1,0.6c4.5,0,13.3-0.6,23-0.6  c2.1,0,3.2,0.6,3.2,1.9c0,1.3-1.5,1.5-4.7,2.4c-1.9,0.4-3,2.1-3,3.9c0,1.7,1.1,4.3,2.6,7.3c3,6.5,33.1,58.3,36.5,64.3  c2.1-5.2,29.2-52.5,32.2-59.1c2.2-4.7,3-8.4,3-11.2c0-2.1-0.9-4.5-4.5-5.4c-1.9-0.4-3.9-0.9-3.9-2.1c0-1.5,1.1-1.9,3.7-1.9  c7.1,0,14,0.6,20.2,0.6c4.7,0,18.9-0.6,23-0.6c2.4,0,3.9,0.4,3.9,1.7c0,1.5-1.7,2.1-4.1,2.1c-2.1,0-6.2,0.9-9.5,2.6  c-4.5,2.1-6.9,4.7-11.6,10.5c-7.1,8.6-37.2,59.1-41.1,68.4c-3.2,7.7-3.2,14.4-3.2,21.5v17.6c0,3.4,0,12.5,0.6,21.5  c0.4,6.2,2.4,11,8.8,11.8c3,0.4,7.7,0.9,10.7,0.9c2.4,0,3.4,0.6,3.4,1.7c0,1.5-1.7,2.1-4.5,2.1c-13.5,0-27.1-0.6-32.9-0.6  c-5.4,0-18.9,0.6-26.9,0.6c-3,0-4.7-0.4-4.7-2.1c0-1.1,1.1-1.7,3.4-1.7c3,0,5.6-0.4,7.5-0.9c4.3-0.9,6.2-5.6,6.7-11.8  c0.6-9,0.6-18.1,0.6-21.5V235.7z"></path></g><g>	<path class="st1" d="M683.5,494.8c-16.4-13.8-20.8-31.9-20.8-47.4c0-11,3.6-29.9,19.5-44c12.1-10.6,28-17,52.7-17  c10.4,0,16.6,0.8,24.2,1.7c6.2,0.9,11.7,2.1,16.6,2.6c1.9,0.2,2.5,0.9,2.5,1.9c0,1.3-0.4,3.2-0.8,8.9c-0.4,5.3-0.4,14.2-0.6,17.4  c-0.2,2.3-0.8,4-2.3,4c-1.3,0-1.7-1.3-1.7-3.4c-0.2-5.1-2.3-10.8-6.4-14.9c-5.7-5.5-16.8-9.4-32.1-9.4c-14.6,0-23.8,2.6-31.4,9.1  c-12.3,10.6-15.3,26.1-15.3,41.8c0,38.2,29.5,56.3,51.8,56.3c14.7,0,22.9-1.1,29.5-8.5c2.8-3.2,5.1-7.7,5.7-10.8  c0.4-2.5,0.8-3.2,2.1-3.2c1.1,0,1.9,1.5,1.9,2.8c0,1.9-1.9,15.9-3.6,21.4c-0.8,2.8-1.5,3.6-4.3,4.7c-6.6,2.6-19.3,3.6-30,3.6  C717.9,512.2,698.6,507.5,683.5,494.8z"></path>	<path class="st1" d="M933.3,441c0.4,0,0.9-0.2,0.9-1.1v-3.4c0-24.4-0.2-30.2-0.4-35.3c-0.4-5.5-1.9-7.2-7.2-8.7  c-1.3-0.4-4.2-0.6-6.4-0.6c-1.9,0-2.8-0.6-2.8-1.7s1.1-1.5,3.6-1.5c8.9,0,20.6,0.4,24.9,0.4c4,0,14.9-0.4,21.4-0.4  c2.5,0,3.6,0.4,3.6,1.5s-1.1,1.7-3,1.7c-1.3,0-2.8,0.2-4.9,0.6c-4.3,0.8-5.7,3-6,8.7c-0.4,5.1-0.4,9.6-0.4,34v28.3  c0,14.7,0,27.4,0.8,34.4c0.6,4.5,1.5,7.6,6.6,8.3c2.3,0.4,5.9,0.6,8.5,0.6c1.7,0,2.6,0.9,2.6,1.7c0,1.1-1.3,1.7-3.4,1.7  c-10.8,0-21.7-0.6-26.3-0.6c-3.8,0-15.5,0.6-21.9,0.6c-2.3,0-3.6-0.6-3.6-1.7c0-0.8,0.8-1.7,2.6-1.7c2.6,0,4.5-0.2,6-0.6  c3.4-0.8,4.3-3.8,4.9-8.5c0.8-6.8,0.8-19.1,0.8-33.8v-12.3c0-0.6-0.6-0.9-0.9-0.9h-62.7c-0.6,0-1.1,0.2-1.1,0.9v12.3  c0,14.7,0.2,27,0.9,34c0.6,4.5,1.5,7.6,6.4,8.3c2.3,0.4,6,0.6,8.5,0.6c1.9,0,2.6,0.9,2.6,1.7c0,1.1-1.3,1.7-3.4,1.7  c-10.8,0-22.3-0.6-27-0.6c-3.8,0-14.7,0.6-21.4,0.6c-2.1,0-3.2-0.6-3.2-1.7c0-0.8,0.6-1.7,2.6-1.7c2.5,0,4.3-0.2,5.9-0.6  c3.4-0.8,4.3-3.8,4.9-8.5c0.8-6.8,0.8-19.5,0.8-34.2v-28.3c0-24.4,0-28.9-0.2-34c-0.4-5.5-1.9-7.2-7.2-8.7  c-1.3-0.4-4.2-0.6-6.6-0.6c-1.7,0-2.8-0.6-2.8-1.7s1.3-1.5,3.6-1.5c8.9,0,19.8,0.4,24.4,0.4c4,0,15.5-0.4,22.1-0.4  c2.3,0,3.4,0.4,3.4,1.5s-0.9,1.7-3,1.7c-1.3,0-2.8,0.2-4.7,0.6c-4.5,0.8-5.9,3-6.2,8.7c-0.4,5.1-0.4,11-0.4,35.3v3.4  c0,0.9,0.6,1.1,1.1,1.1H933.3z"></path>	<path class="st1" d="M1051.2,469.7c-0.9,0-1.1,0.2-1.5,1.1l-8.9,21.5c-1.7,4-2.5,7.9-2.5,9.8c0,2.8,1.5,4.5,6.6,4.5h2.5  c2.1,0,2.5,0.8,2.5,1.7c0,1.3-0.9,1.7-2.6,1.7c-5.5,0-13.2-0.6-18.5-0.6c-1.7,0-10.6,0.6-19.3,0.6c-2.1,0-3-0.4-3-1.7  c0-0.9,0.6-1.7,1.9-1.7c1.5,0,3.4-0.2,4.9-0.2c7.6-1.1,10.4-6,13.8-14.2l43.5-101.1c1.9-4.5,3.2-6.4,4.9-6.4c2.5,0,3.2,1.5,4.9,5.1  c4,8.9,31.7,74.6,42.3,99c6.4,14.6,11.1,16.6,14.2,17.2c2.5,0.4,4.3,0.6,6.2,0.6c1.5,0,2.3,0.6,2.3,1.7c0,1.3-0.9,1.7-7.2,1.7  c-5.9,0-18,0-31.9-0.4c-3-0.2-4.9-0.2-4.9-1.3c0-0.9,0.4-1.5,2.1-1.7c1.1-0.2,2.3-1.7,1.5-3.6l-12.8-32.3c-0.4-0.9-0.9-1.1-1.7-1.1  H1051.2z M1086.7,460.8c0.8,0,0.9-0.4,0.8-0.9l-15.7-40.8c-0.2-0.6-0.4-1.5-0.8-1.5c-0.6,0-0.8,0.9-0.9,1.5l-16.1,40.6  c-0.4,0.8,0,1.1,0.6,1.1H1086.7z"></path>	<path class="st1" d="M1206.5,389.2c0.4-2.6,1.9-4.2,3.2-4.2c1.7,0,2.8,0.8,5.1,5.1l44.6,89.6L1304,389c1.3-2.6,2.8-4,4.3-4  c1.3,0,3.2,1.7,3.8,5.1l15.1,99.2c1.5,10,3,14.4,8.1,15.9c4.7,1.3,7.4,1.5,9.4,1.5c1.5,0,2.6,0.6,2.6,1.5c0,1.3-1.9,1.9-4.3,1.9  c-4.2,0-27.8-0.8-34.4-1.1c-4-0.2-4.9-0.9-4.9-1.9c0-0.8,0.8-1.3,1.9-1.7c0.9-0.4,1.3-2.3,0.8-6.8l-9.3-69.5h-0.6l-35.7,71.8  c-3.8,7.6-4.7,9.1-6.6,9.1c-2.1,0-4-3.2-6.6-8.1c-4-7.4-17.2-31.9-19.1-36.5c-1.3-3-11.1-23.2-16.6-34.4h-0.6l-7.9,62.7  c-0.4,2.8-0.6,4.9-0.6,7.6c0,3,2.3,4.2,5.1,4.7c2.8,0.6,4.3,0.8,5.9,0.8s2.6,0.8,2.6,1.5c0,1.5-1.5,1.9-4,1.9  c-7,0-14.6-0.6-17.6-0.6c-3.2,0-11.1,0.6-16.4,0.6c-1.7,0-3-0.4-3-1.9c0-0.8,0.9-1.5,2.6-1.5c1.3,0,2.5,0,5.1-0.4  c4.5-0.6,6-7,6.8-12.3L1206.5,389.2z"></path>	<path class="st1" d="M1407.7,435.1c0-24.4,0-28.9-0.2-34c-0.4-5.5-1.9-7.2-7.2-8.7c-1.3-0.4-4.2-0.6-6.6-0.6  c-1.7,0-2.8-0.6-2.8-1.7s1.3-1.5,3.8-1.5c8.7,0,19.3,0.4,22.5,0.4c8.3,0,19.3-0.4,24.9-0.4c30,0,35.3,15.5,35.3,24  c0,12.5-9.3,22.1-18.7,28.2c13.6,4.3,30.6,15.9,30.6,34.8c0,17.2-13.6,35-44.2,35c-1.9,0-7.6-0.2-13.2-0.6  c-5.7-0.2-11.5-0.4-14.2-0.4c-1.9,0-5.5,0.2-9.4,0.2c-4,0.2-8.1,0.4-11.5,0.4c-2.1,0-3.2-0.6-3.2-1.7c0-0.8,0.6-1.7,2.6-1.7  c2.5,0,4.3-0.2,5.9-0.6c3.4-0.8,4.3-3.8,4.9-8.5c0.8-6.8,0.8-19.5,0.8-34.2V435.1z M1429.3,437.8c0,1.3,0.6,1.5,1.1,1.7  c1.5,0.4,4,0.6,7.7,0.6c5.5,0,10.2-0.6,13-2.8c4.3-3.4,7.6-9.3,7.6-17c0-10.8-6.4-24.2-20.8-24.2c-2.3,0-5.5,0-7.2,0.4  c-1.1,0.2-1.5,0.9-1.5,2.6V437.8z M1429.3,485c0,10.6,0.6,13.8,5.9,15.9c4.3,1.7,8.1,1.9,11.9,1.9c8.9,0,20.4-4.9,20.4-22.7  c0-7.4-3.2-20-15.7-28.5c-3.4-2.5-7.9-4.2-14.4-4.2h-7.2c-0.6,0-0.9,0.2-0.9,1.1V485z"></path>	<path class="st1" d="M1554.2,435.1c0-24.4,0-28.9-0.2-34c-0.4-5.5-1.9-7.2-7.2-8.7c-1.3-0.4-4.2-0.6-6.6-0.6  c-1.7,0-2.8-0.6-2.8-1.7s1.3-1.5,3.8-1.5c8.7,0,19.3,0.4,24,0.4c5.3,0,42.1,0.2,45.4,0c3-0.2,5.7-0.8,7-0.9  c0.9-0.2,1.9-0.8,2.6-0.8c0.9,0,1.1,0.8,1.1,1.5c0,1.1-0.9,3-1.3,10.4c-0.2,1.7-0.6,8.7-0.9,10.6c-0.2,0.8-0.6,2.6-1.9,2.6  c-1.1,0-1.3-0.8-1.3-2.1c0-1.1-0.2-4-1.1-5.9c-1.3-2.8-2.6-5.1-11-5.9c-2.8-0.4-22.7-0.8-26.1-0.8c-0.8,0-1.1,0.6-1.1,1.5v39.7  c0,0.9,0.2,1.7,1.1,1.7c3.8,0,25.3,0,29.1-0.4c4-0.4,6.4-0.8,7.9-2.5c1.3-1.1,1.9-2.1,2.6-2.1s1.3,0.8,1.3,1.7  c0,0.9-0.4,3.6-1.3,11.7c-0.4,3.2-0.8,9.6-0.8,10.8c0,1.3-0.2,3.6-1.7,3.6c-1.1,0-1.5-0.6-1.5-1.3c-0.2-1.7-0.2-3.8-0.6-5.9  c-0.9-3.2-3-5.7-9.3-6.2c-3-0.4-21.9-0.8-26.1-0.8c-0.8,0-0.9,0.8-0.9,1.7V464c0,5.5-0.2,19.1,0,23.8c0.4,11,5.5,13.4,22.5,13.4  c4.3,0,11.3-0.2,15.7-2.1c4.2-1.9,6-5.3,7.2-11.9c0.4-1.7,0.8-2.5,1.9-2.5c1.3,0,1.5,2.1,1.5,3.8c0,3.6-1.3,14.5-2.3,17.8  c-1.1,4.2-2.6,4.2-8.9,4.2c-12.5,0-22.5-0.2-30.6-0.6c-8.1-0.2-14.4-0.4-19.3-0.4c-1.9,0-5.5,0.2-9.4,0.2c-4,0.2-8.1,0.4-11.5,0.4  c-2.1,0-3.2-0.6-3.2-1.7c0-0.8,0.6-1.7,2.6-1.7c2.5,0,4.3-0.2,5.9-0.6c3.4-0.8,4.3-3.8,4.9-8.5c0.8-6.8,0.8-19.5,0.8-34.2V435.1z"></path>	<path class="st1" d="M1692.3,435.1c0-24.4,0-28.9-0.2-34c-0.4-5.5-1.9-7.2-7.2-8.7c-1.3-0.4-4.2-0.6-6.6-0.6  c-1.7,0-2.8-0.6-2.8-1.7s1.3-1.5,3.8-1.5c8.7,0,19.3,0.4,22.7,0.4c5.7,0,20.8-0.4,25.9-0.4c10.6,0,22.7,0.9,31.6,6.8  c4.7,3.2,11.7,11.3,11.7,22.1c0,11.9-6.8,22.5-23.1,35.5c14.7,18.1,26.5,32.7,36.5,42.7c9.3,9.3,15.1,10,17.8,10.6  c1.7,0.4,2.6,0.4,4,0.4c1.3,0,2.1,0.9,2.1,1.7c0,1.3-1.1,1.7-3.2,1.7h-15.9c-9.3,0-13.8-0.9-18.1-3.2c-7.2-3.6-13.4-11.1-22.7-23.6  c-6.6-8.7-13.6-19.5-15.7-21.9c-0.9-0.9-1.9-1.1-3-1.1l-14.9-0.4c-0.8,0-1.3,0.4-1.3,1.3v2.3c0,14.9,0.2,27.4,0.9,34.2  c0.6,4.7,1.3,7.7,6.4,8.5c2.5,0.4,6,0.6,8.1,0.6c1.3,0,2.1,0.9,2.1,1.7c0,1.1-1.3,1.7-3.4,1.7c-9.6,0-23.4-0.6-25.9-0.6  c-3.2,0-13.8,0.6-20.4,0.6c-2.1,0-3.2-0.6-3.2-1.7c0-0.8,0.6-1.7,2.6-1.7c2.5,0,4.3-0.2,5.9-0.6c3.4-0.8,4.3-3.8,4.9-8.5  c0.8-6.8,0.8-19.5,0.8-34.2V435.1z M1713.5,447.6c0,1.7,0.4,2.3,1.5,2.8c3.6,1.1,8.5,1.5,12.7,1.5c6.6,0,8.9-0.6,11.7-2.6  c5.1-3.6,10.8-10.6,10.8-23.8c0-22.7-15.5-28.5-25.3-28.5c-4.2,0-8.1,0.2-9.8,0.6c-1.1,0.4-1.5,0.9-1.5,2.3V447.6z"></path>	<path class="st1" d="M1926.6,449.3c0-27.4,19.3-62.9,69.7-62.9c41.9,0,68,23.2,68,60.1s-26.8,65.8-69.7,65.8  C1946.3,512.2,1926.6,477.8,1926.6,449.3z M2039.6,452.3c0-35.5-21.4-57.4-48.2-57.4c-18.5,0-40.2,9.8-40.2,49.5  c0,33.1,18.9,59.1,50.3,59.1C2013.2,503.5,2039.6,498,2039.6,452.3z"></path>	<path class="st1" d="M2150.7,464c0,15.5,0.2,26.8,0.9,33.6c0.6,4.7,1.7,7.7,6.6,8.5c2.3,0.4,5.9,0.6,8.1,0.6c2.1,0,2.8,0.9,2.8,1.7  c0,1.1-1.1,1.7-3.6,1.7c-10.6,0-22.3-0.6-26.6-0.6c-4.3,0-14.9,0.6-21.2,0.6c-2.3,0-3.4-0.4-3.4-1.7c0-0.8,0.6-1.7,2.5-1.7  c2.5,0,4.3-0.2,5.9-0.6c3.4-0.8,4.3-3.8,4.9-8.5c0.8-6.8,0.8-18.7,0.8-34.2v-28.3c0-24.4,0-28.9-0.2-34c-0.4-5.5-1.9-7.4-7.2-8.7  c-1.3-0.4-4.2-0.6-6.6-0.6c-1.5,0-2.8-0.6-2.8-1.7s1.3-1.5,4-1.5c8.5,0,19.1,0.4,23.8,0.4c6.4,0,43.3,0.2,47.2,0  c3-0.2,5.1-0.4,6.8-0.8c0.9-0.2,1.7-0.9,2.6-0.9c0.6,0,1.1,0.8,1.1,1.5c0,1.1-0.8,3-1.3,7.2c-0.2,1.7-0.6,11.1-0.8,13  c-0.2,1.3-0.6,3.2-1.7,3.2s-2.1-0.8-2.1-2.6c0-1.3,0.2-3.8-0.9-6s-4.3-4.7-10.6-4.9l-27.6-0.6c-0.9,0-1.5,0.4-1.5,2.3v38.9  c0,0.9,0.2,1.5,1.1,1.5l23.2-0.2c2.8,0,5.1,0,7.6-0.2c3-0.2,5.5-0.8,7-2.8c0.9-0.9,1.3-1.7,2.3-1.7c0.6,0,0.9,0.6,0.9,1.5  s-0.8,5.3-1.3,10.4c-0.4,3.2-0.6,10.6-0.6,11.7c0,1.3-0.2,3.6-1.9,3.6c-0.9,0-1.5-1.1-1.5-2.3s-0.4-3-1.1-4.9  c-0.8-2.3-2.8-5.5-7.9-5.9c-4.2-0.4-23.8-0.6-26.6-0.6c-0.8,0-1.1,0.2-1.1,1.3V464z"></path>	<path class="st1" d="M2361,494.8c-16.4-13.8-20.8-31.9-20.8-47.4c0-11,3.6-29.9,19.5-44c12.1-10.6,28-17,52.7-17  c10.4,0,16.6,0.8,24.2,1.7c6.2,0.9,11.7,2.1,16.6,2.6c1.9,0.2,2.5,0.9,2.5,1.9c0,1.3-0.4,3.2-0.8,8.9c-0.4,5.3-0.4,14.2-0.6,17.4  c-0.2,2.3-0.8,4-2.3,4c-1.3,0-1.7-1.3-1.7-3.4c-0.2-5.1-2.3-10.8-6.4-14.9c-5.7-5.5-16.8-9.4-32.1-9.4c-14.6,0-23.8,2.6-31.4,9.1  c-12.3,10.6-15.3,26.1-15.3,41.8c0,38.2,29.5,56.3,51.8,56.3c14.7,0,22.9-1.1,29.5-8.5c2.8-3.2,5.1-7.7,5.7-10.8  c0.4-2.5,0.8-3.2,2.1-3.2c1.1,0,1.9,1.5,1.9,2.8c0,1.9-1.9,15.9-3.6,21.4c-0.8,2.8-1.5,3.6-4.3,4.7c-6.6,2.6-19.3,3.6-30,3.6  C2395.4,512.2,2376.1,507.5,2361,494.8z"></path>	<path class="st1" d="M2506.5,449.3c0-27.4,19.3-62.9,69.7-62.9c41.9,0,68,23.2,68,60.1s-26.8,65.8-69.7,65.8  C2526.2,512.2,2506.5,477.8,2506.5,449.3z M2619.5,452.3c0-35.5-21.4-57.4-48.2-57.4c-18.5,0-40.2,9.8-40.2,49.5  c0,33.1,18.9,59.1,50.3,59.1C2593.1,503.5,2619.5,498,2619.5,452.3z"></path>	<path class="st1" d="M2719.3,389.2c0.4-2.6,1.9-4.2,3.2-4.2c1.7,0,2.8,0.8,5.1,5.1l44.6,89.6l44.6-90.7c1.3-2.6,2.8-4,4.3-4  c1.3,0,3.2,1.7,3.8,5.1l15.1,99.2c1.5,10,3,14.4,8.1,15.9c4.7,1.3,7.4,1.5,9.4,1.5c1.5,0,2.6,0.6,2.6,1.5c0,1.3-1.9,1.9-4.3,1.9  c-4.2,0-27.8-0.8-34.4-1.1c-4-0.2-4.9-0.9-4.9-1.9c0-0.8,0.8-1.3,1.9-1.7c0.9-0.4,1.3-2.3,0.8-6.8l-9.3-69.5h-0.6l-35.7,71.8  c-3.8,7.6-4.7,9.1-6.6,9.1c-2.1,0-4-3.2-6.6-8.1c-4-7.4-17.2-31.9-19.1-36.5c-1.3-3-11.1-23.2-16.6-34.4h-0.6l-7.9,62.7  c-0.4,2.8-0.6,4.9-0.6,7.6c0,3,2.3,4.2,5.1,4.7c2.8,0.6,4.3,0.8,5.9,0.8s2.6,0.8,2.6,1.5c0,1.5-1.5,1.9-4,1.9  c-7,0-14.6-0.6-17.6-0.6c-3.2,0-11.1,0.6-16.4,0.6c-1.7,0-3-0.4-3-1.9c0-0.8,0.9-1.5,2.6-1.5c1.3,0,2.5,0,5.1-0.4  c4.5-0.6,6-7,6.8-12.3L2719.3,389.2z"></path>	<path class="st1" d="M2926.8,389.2c0.4-2.6,1.9-4.2,3.2-4.2c1.7,0,2.8,0.8,5.1,5.1l44.6,89.6l44.6-90.7c1.3-2.6,2.8-4,4.3-4  c1.3,0,3.2,1.7,3.8,5.1l15.1,99.2c1.5,10,3,14.4,8.1,15.9c4.7,1.3,7.4,1.5,9.4,1.5c1.5,0,2.6,0.6,2.6,1.5c0,1.3-1.9,1.9-4.3,1.9  c-4.2,0-27.8-0.8-34.4-1.1c-4-0.2-4.9-0.9-4.9-1.9c0-0.8,0.8-1.3,1.9-1.7c0.9-0.4,1.3-2.3,0.8-6.8l-9.3-69.5h-0.6l-35.7,71.8  c-3.8,7.6-4.7,9.1-6.6,9.1c-2.1,0-4-3.2-6.6-8.1c-4-7.4-17.2-31.9-19.1-36.5c-1.3-3-11.1-23.2-16.6-34.4h-0.6l-7.9,62.7  c-0.4,2.8-0.6,4.9-0.6,7.6c0,3,2.3,4.2,5.1,4.7c2.8,0.6,4.3,0.8,5.9,0.8s2.6,0.8,2.6,1.5c0,1.5-1.5,1.9-4,1.9  c-7,0-14.6-0.6-17.6-0.6c-3.2,0-11.1,0.6-16.4,0.6c-1.7,0-3-0.4-3-1.9c0-0.8,0.9-1.5,2.6-1.5c1.3,0,2.5,0,5.1-0.4  c4.5-0.6,6-7,6.8-12.3L2926.8,389.2z"></path>	<path class="st1" d="M3128,435.1c0-24.4,0-28.9-0.2-34c-0.4-5.5-1.9-7.2-7.2-8.7c-1.3-0.4-4.2-0.6-6.6-0.6c-1.7,0-2.8-0.6-2.8-1.7  s1.3-1.5,3.8-1.5c8.7,0,19.3,0.4,24,0.4c5.3,0,42.1,0.2,45.4,0c3-0.2,5.7-0.8,7-0.9c0.9-0.2,1.9-0.8,2.6-0.8c0.9,0,1.1,0.8,1.1,1.5  c0,1.1-0.9,3-1.3,10.4c-0.2,1.7-0.6,8.7-0.9,10.6c-0.2,0.8-0.6,2.6-1.9,2.6c-1.1,0-1.3-0.8-1.3-2.1c0-1.1-0.2-4-1.1-5.9  c-1.3-2.8-2.6-5.1-11-5.9c-2.8-0.4-22.7-0.8-26.1-0.8c-0.8,0-1.1,0.6-1.1,1.5v39.7c0,0.9,0.2,1.7,1.1,1.7c3.8,0,25.3,0,29.1-0.4  c4-0.4,6.4-0.8,7.9-2.5c1.3-1.1,1.9-2.1,2.6-2.1s1.3,0.8,1.3,1.7c0,0.9-0.4,3.6-1.3,11.7c-0.4,3.2-0.8,9.6-0.8,10.8  c0,1.3-0.2,3.6-1.7,3.6c-1.1,0-1.5-0.6-1.5-1.3c-0.2-1.7-0.2-3.8-0.6-5.9c-0.9-3.2-3-5.7-9.3-6.2c-3-0.4-21.9-0.8-26.1-0.8  c-0.8,0-0.9,0.8-0.9,1.7V464c0,5.5-0.2,19.1,0,23.8c0.4,11,5.5,13.4,22.5,13.4c4.3,0,11.3-0.2,15.7-2.1c4.2-1.9,6-5.3,7.2-11.9  c0.4-1.7,0.8-2.5,1.9-2.5c1.3,0,1.5,2.1,1.5,3.8c0,3.6-1.3,14.5-2.3,17.8c-1.1,4.2-2.6,4.2-8.9,4.2c-12.5,0-22.5-0.2-30.6-0.6  c-8.1-0.2-14.4-0.4-19.3-0.4c-1.9,0-5.5,0.2-9.4,0.2c-4,0.2-8.1,0.4-11.5,0.4c-2.1,0-3.2-0.6-3.2-1.7c0-0.8,0.6-1.7,2.6-1.7  c2.5,0,4.3-0.2,5.9-0.6c3.4-0.8,4.3-3.8,4.9-8.5c0.8-6.8,0.8-19.5,0.8-34.2V435.1z"></path>	<path class="st1" d="M3266.1,435.1c0-24.4,0-28.9-0.2-34c-0.4-5.5-1.9-7.2-7.2-8.7c-1.3-0.4-4.2-0.6-6.6-0.6  c-1.7,0-2.8-0.6-2.8-1.7s1.3-1.5,3.8-1.5c8.7,0,19.3,0.4,22.7,0.4c5.7,0,20.8-0.4,25.9-0.4c10.6,0,22.7,0.9,31.6,6.8  c4.7,3.2,11.7,11.3,11.7,22.1c0,11.9-6.8,22.5-23.1,35.5c14.7,18.1,26.5,32.7,36.5,42.7c9.3,9.3,15.1,10,17.8,10.6  c1.7,0.4,2.6,0.4,4,0.4c1.3,0,2.1,0.9,2.1,1.7c0,1.3-1.1,1.7-3.2,1.7h-15.9c-9.3,0-13.8-0.9-18.1-3.2c-7.2-3.6-13.4-11.1-22.7-23.6  c-6.6-8.7-13.6-19.5-15.7-21.9c-0.9-0.9-1.9-1.1-3-1.1l-14.9-0.4c-0.8,0-1.3,0.4-1.3,1.3v2.3c0,14.9,0.2,27.4,0.9,34.2  c0.6,4.7,1.3,7.7,6.4,8.5c2.5,0.4,6,0.6,8.1,0.6c1.3,0,2.1,0.9,2.1,1.7c0,1.1-1.3,1.7-3.4,1.7c-9.6,0-23.4-0.6-25.9-0.6  c-3.2,0-13.8,0.6-20.4,0.6c-2.1,0-3.2-0.6-3.2-1.7c0-0.8,0.6-1.7,2.6-1.7c2.5,0,4.3-0.2,5.9-0.6c3.4-0.8,4.3-3.8,4.9-8.5  c0.8-6.8,0.8-19.5,0.8-34.2V435.1z M3287.3,447.6c0,1.7,0.4,2.3,1.5,2.8c3.6,1.1,8.5,1.5,12.7,1.5c6.6,0,8.9-0.6,11.7-2.6  c5.1-3.6,10.8-10.6,10.8-23.8c0-22.7-15.5-28.5-25.3-28.5c-4.2,0-8.1,0.2-9.8,0.6c-1.1,0.4-1.5,0.9-1.5,2.3V447.6z"></path>	<path class="st1" d="M3430.5,494.8c-16.4-13.8-20.8-31.9-20.8-47.4c0-11,3.6-29.9,19.5-44c12.1-10.6,28-17,52.7-17  c10.4,0,16.6,0.8,24.2,1.7c6.2,0.9,11.7,2.1,16.6,2.6c1.9,0.2,2.5,0.9,2.5,1.9c0,1.3-0.4,3.2-0.8,8.9c-0.4,5.3-0.4,14.2-0.6,17.4  c-0.2,2.3-0.8,4-2.3,4c-1.3,0-1.7-1.3-1.7-3.4c-0.2-5.1-2.3-10.8-6.4-14.9c-5.7-5.5-16.8-9.4-32.1-9.4c-14.5,0-23.8,2.6-31.4,9.1  c-12.3,10.6-15.3,26.1-15.3,41.8c0,38.2,29.5,56.3,51.8,56.3c14.7,0,22.9-1.1,29.5-8.5c2.8-3.2,5.1-7.7,5.7-10.8  c0.4-2.5,0.8-3.2,2.1-3.2c1.1,0,1.9,1.5,1.9,2.8c0,1.9-1.9,15.9-3.6,21.4c-0.8,2.8-1.5,3.6-4.3,4.7c-6.6,2.6-19.3,3.6-30,3.6  C3464.9,512.2,3445.6,507.5,3430.5,494.8z"></path>	<path class="st1" d="M3594.1,435.1c0-24.4,0-28.9-0.2-34c-0.4-5.5-1.9-7.2-7.2-8.7c-1.3-0.4-4.2-0.6-6.6-0.6  c-1.7,0-2.8-0.6-2.8-1.7s1.3-1.5,3.8-1.5c8.7,0,19.3,0.4,24,0.4c5.3,0,42.1,0.2,45.4,0c3-0.2,5.7-0.8,7-0.9  c0.9-0.2,1.9-0.8,2.6-0.8c0.9,0,1.1,0.8,1.1,1.5c0,1.1-0.9,3-1.3,10.4c-0.2,1.7-0.6,8.7-0.9,10.6c-0.2,0.8-0.6,2.6-1.9,2.6  c-1.1,0-1.3-0.8-1.3-2.1c0-1.1-0.2-4-1.1-5.9c-1.3-2.8-2.6-5.1-11-5.9c-2.8-0.4-22.7-0.8-26.1-0.8c-0.8,0-1.1,0.6-1.1,1.5v39.7  c0,0.9,0.2,1.7,1.1,1.7c3.8,0,25.3,0,29.1-0.4c4-0.4,6.4-0.8,7.9-2.5c1.3-1.1,1.9-2.1,2.6-2.1s1.3,0.8,1.3,1.7  c0,0.9-0.4,3.6-1.3,11.7c-0.4,3.2-0.8,9.6-0.8,10.8c0,1.3-0.2,3.6-1.7,3.6c-1.1,0-1.5-0.6-1.5-1.3c-0.2-1.7-0.2-3.8-0.6-5.9  c-0.9-3.2-3-5.7-9.3-6.2c-3-0.4-21.9-0.8-26.1-0.8c-0.8,0-0.9,0.8-0.9,1.7V464c0,5.5-0.2,19.1,0,23.8c0.4,11,5.5,13.4,22.5,13.4  c4.3,0,11.3-0.2,15.7-2.1c4.2-1.9,6-5.3,7.2-11.9c0.4-1.7,0.8-2.5,1.9-2.5c1.3,0,1.5,2.1,1.5,3.8c0,3.6-1.3,14.5-2.3,17.8  c-1.1,4.2-2.6,4.2-8.9,4.2c-12.5,0-22.5-0.2-30.6-0.6c-8.1-0.2-14.4-0.4-19.3-0.4c-1.9,0-5.5,0.2-9.4,0.2c-4,0.2-8.1,0.4-11.5,0.4  c-2.1,0-3.2-0.6-3.2-1.7c0-0.8,0.6-1.7,2.6-1.7c2.5,0,4.3-0.2,5.9-0.6c3.4-0.8,4.3-3.8,4.9-8.5c0.8-6.8,0.8-19.5,0.8-34.2V435.1z"></path></g><rect x="622.2" y="326.5" class="st1" width="3099.8" height="31.1"></rect><path class="st1" d="M496.5,502c-5.5,3.4-11.9,6.4-22.8,6.4c-13.1,0-19.8-4.4-26.2-8.7c-6.5-4.3-12.7-8.4-25.3-8.4 c-12.6,0-18.8,4.1-25.3,8.4c-6.4,4.3-13.1,8.7-26.2,8.7c-13.1,0-19.8-4.4-26.2-8.7c-6.5-4.3-12.7-8.4-25.3-8.4 c-12.6,0-18.8,4.1-25.3,8.4c-6.4,4.3-13.1,8.7-26.2,8.7c-13.1,0-19.8-4.4-26.2-8.7c-6.5-4.3-12.7-8.4-25.3-8.4 c-12.6,0-18.8,4.1-25.3,8.4c-6.4,4.3-13.1,8.7-26.2,8.7c-13.1,0-19.8-4.4-26.2-8.7c-6.5-4.3-12.7-8.4-25.3-8.4 c-12.6,0-18.8,4.1-25.3,8.4c-4.9,3.2-9.8,6.5-17.7,7.9V519c7.8-1.4,12.8-4.7,17.7-7.9c6.5-4.3,12.7-8.4,25.3-8.4 c12.6,0,18.8,4.1,25.3,8.4c6.4,4.3,13.1,8.7,26.2,8.7c13.1,0,19.8-4.4,26.2-8.7c6.5-4.3,12.7-8.4,25.3-8.4c12.6,0,18.8,4.1,25.3,8.4 c6.4,4.3,13.1,8.7,26.2,8.7c13.1,0,19.8-4.4,26.2-8.7c6.5-4.3,12.7-8.4,25.3-8.4c12.6,0,18.8,4.1,25.3,8.4 c6.4,4.3,13.1,8.7,26.2,8.7c13.1,0,19.8-4.4,26.2-8.7c6.5-4.3,12.7-8.4,25.3-8.4c12.6,0,18.8,4.1,25.3,8.4 c6.4,4.3,13.1,8.7,26.2,8.7c10.8,0,17.2-3,22.8-6.4V502z"></path></svg>